# xmcd CD database file
#
# Track frame offsets:
#	182
#	18650
#	33547
#	46412
#	57477
#	68377
#	88125
#	99812
#	110307
#	124335
#	134070
#	156612
#	174342
#	191700
#	204027
#	213382
#	225240
#	234965
#	246780
#	259742
#	279160
#	291987
#	308640
#	333557
#
# Disc length: 4577 seconds
#
# Revision: 2
# Processed by: cddbd v1.4PL0 Copyright (c) Steve Scherf et al.
# Submitted via: CDex 1.50beta10
#
DISCID=5511df18
DTITLE=Various Artist - Planete Blues - The Best of Blues-Rock
DYEAR=1900
DGENRE=
TTITLE0=John Lee Hooker: Della Mae
TTITLE1=Big Mama Thorton: Hound Dog
TTITLE2=T-bone Walker: Stormy Monday Blues
TTITLE3=Bo Diddley: Diddy Wah Diddy
TTITLE4=Muddy Waters: Key To The Highway
TTITLE5=Howlin' Wolf: Wang Dang Doodle
TTITLE6=Willie Dixon and Menphis Slim: Crazy For My Baby
TTITLE7=Canned Heat: Dimple
TTITLE8=Bo Diddley: You Can't Judge A Book By The Cover
TTITLE9=John Mayal: I'm Your Witch Doctor
TTITLE10=Soony Boy Williamson: Boom Boom
TTITLE11=Muddy Waters: Manish Boy
TTITLE12=Howlin' Wolf: Red Rooster
TTITLE13=Johnny Winter: Good Morning Little Schoolgirl
TTITLE14=Canned Heat: Rollin' and Tumblin
TTITLE15=All Stars and Jeff Beck: Steelin
TTITLE16=Eric Clapton: Tribute To Elmore
TTITLE17=Yardbirds: I'm A Man
TTITLE18=Fleetwood Mac: Black Magic Woman
TTITLE19=Yardbirds: New York City
TTITLE20=Muddy Waters: Hoochie Coochie Man
TTITLE21=Koko Taylor: What Kind Of Man Is This
TTITLE22=Screamin' Jay Hawkings: Constipation Blues
TTITLE23=Chuck Berry: Worried Life Blues
EXTD=
EXTT0=
EXTT1=
EXTT2=
EXTT3=
EXTT4=
EXTT5=
EXTT6=
EXTT7=
EXTT8=
EXTT9=
EXTT10=
EXTT11=
EXTT12=
EXTT13=
EXTT14=
EXTT15=
EXTT16=
EXTT17=
EXTT18=
EXTT19=
EXTT20=
EXTT21=
EXTT22=
EXTT23=
PLAYORDER=
